# xmcd CD database file
# Copyright (C) 1993-1999 CDDB, Inc.
#
# Track frame offsets:
#	150
#	24200
#	39302
#	61684
#	78988
#	89908
#	104242
#	127011
#	144723
#	163107
#	177721
#	187263
#	199509
#
# Disc length: 2721
#
# Revision: 1
# Processed by: cddbd v1.5.2PL0 Copyright (c) Steve Scherf et al.
# Submitted via: CoolCD_Studio 1.5
#
DISCID=be0a9f0d
DTITLE=Coro Juvenil Salesiano - Levantemos la mirada
DYEAR=2010
DGENRE=
TTITLE0=Emmanuel
TTITLE1=Magníficat
TTITLE2=Jóvenes Latinoamericanos
TTITLE3=El profeta
TTITLE4=Que se eleven las voces
TTITLE5=Levantemos la mirada
TTITLE6=Siembra y sueña
TTITLE7=Quédate aquí
TTITLE8=Quiero ser pan
TTITLE9=Madre de resurrección
TTITLE10=Tu voz resuena en mí
TTITLE11=contra toda esperanza
TTITLE12=Santo
EXTD=
EXTT0=
EXTT1=
EXTT2=
EXTT3=
EXTT4=
EXTT5=
EXTT6=
EXTT7=
EXTT8=
EXTT9=
EXTT10=
EXTT11=
EXTT12=
PLAYORDER=
